# xmcd CD database generated by RipIT
#
# Track frame offsets:
# 180
# 16901
# 47346
# 67973
# 91970
# 109150
# 148074
# 180248
# 192021
# 205674
# 237028
# 251348
# 273171
# 292379
#
# Disc length: 4179 seconds
#
# Revision: 0
# Processed by: cddbd v1.5.2PL0 Copyright (c) Steve Scherf et al.
# Submitted via: RipIT 3.6.0 www.suwald.com/ripit/ripit.html on 2007-12-22 at 12:10
#
DISCID=b910510e
DTITLE=Sasha Smith - Spring!!!
DYEAR=1996
DGENRE=Blues
TTITLE0=Ben's Boogie
TTITLE1=Safety Boy
TTITLE2=a minor
TTITLE3=Hesitation Blues
TTITLE4=Bill's Blues
TTITLE5=BLue Light Special
TTITLE6=Cat Stew
TTITLE7=meade Lux Deluxe
TTITLE8=No One's Poor in the Promised Land
TTITLE9=Train of Thought
TTITLE10=Bill's Blues (alt. take)
TTITLE11=Desmasiado Basura
TTITLE12=Blues for my Father
TTITLE13=J.J. Boogie
EXTD=
EXTT0=
EXTT1=
EXTT2=
EXTT3=
EXTT4=
EXTT5=
EXTT6=
EXTT7=
EXTT8=
EXTT9=
EXTT10=
EXTT11=
EXTT12=
EXTT13=
PLAYORDER=
